<svg width="224" height="54" viewBox="0 0 224 54" fill="none" xmlns="http://www.w3.org/2000/svg" class="logo"><path d="M56.336 20.164V23.512L47.336 36.652H56.336V40H42.584V36.652L51.62 23.512H42.584V20.164H56.336ZM79.5453 30.064C79.5453 36.292 74.9373 40.324 69.2493 40.324C63.5973 40.324 59.3133 36.292 59.3133 30.064C59.3133 23.836 63.7773 19.84 69.4293 19.84C75.0813 19.84 79.5453 23.836 79.5453 30.064ZM63.4893 30.064C63.4893 34.564 66.1533 36.76 69.2493 36.76C72.3093 36.76 75.3333 34.564 75.3333 30.064C75.3333 25.564 72.4173 23.404 69.3573 23.404C66.2613 23.404 63.4893 25.564 63.4893 30.064ZM102.502 30.064C102.502 36.292 97.8943 40.324 92.2063 40.324C86.5543 40.324 82.2703 36.292 82.2703 30.064C82.2703 23.836 86.7343 19.84 92.3863 19.84C98.0383 19.84 102.502 23.836 102.502 30.064ZM86.4463 30.064C86.4463 34.564 89.1103 36.76 92.2063 36.76C95.2663 36.76 98.2903 34.564 98.2903 30.064C98.2903 25.564 95.3743 23.404 92.3143 23.404C89.2183 23.404 86.4463 25.564 86.4463 30.064ZM134.675 40V28.912C134.675 25.276 132.695 23.404 129.707 23.404C126.683 23.404 124.703 25.276 124.703 28.912V40H120.635V28.912C120.635 25.276 118.655 23.404 115.667 23.404C112.643 23.404 110.663 25.276 110.663 28.912V40H106.559V20.164H110.663V22.432C111.995 20.812 114.155 19.84 116.531 19.84C119.663 19.84 122.291 21.172 123.659 23.764C124.883 21.352 127.691 19.84 130.571 19.84C135.215 19.84 138.743 22.756 138.743 28.3V40H134.675Z" fill="black"></path><path d="M144.47 40V23.512H142.13V20.164H144.47V18.76C144.47 14.188 146.81 12.208 151.994 12.208V15.628C149.474 15.628 148.61 16.492 148.61 18.76V20.164H152.282V23.512H148.61V40H144.47ZM174.819 30.064C174.819 36.292 170.211 40.324 164.523 40.324C158.871 40.324 154.587 36.292 154.587 30.064C154.587 23.836 159.051 19.84 164.703 19.84C170.355 19.84 174.819 23.836 174.819 30.064ZM158.763 30.064C158.763 34.564 161.427 36.76 164.523 36.76C167.583 36.76 170.607 34.564 170.607 30.064C170.607 25.564 167.691 23.404 164.631 23.404C161.535 23.404 158.763 25.564 158.763 30.064ZM197.776 30.064C197.776 36.292 193.168 40.324 187.48 40.324C181.828 40.324 177.544 36.292 177.544 30.064C177.544 23.836 182.008 19.84 187.66 19.84C193.312 19.84 197.776 23.836 197.776 30.064ZM181.72 30.064C181.72 34.564 184.384 36.76 187.48 36.76C190.54 36.76 193.564 34.564 193.564 30.064C193.564 25.564 190.648 23.404 187.588 23.404C184.492 23.404 181.72 25.564 181.72 30.064ZM200.465 29.992C200.465 23.872 204.605 19.84 209.861 19.84C212.453 19.84 215.189 21.064 216.701 22.936V13.36H220.841V40H216.701V37.012C215.441 38.812 213.065 40.324 209.825 40.324C204.605 40.324 200.465 36.112 200.465 29.992ZM216.701 30.064C216.701 25.816 213.785 23.404 210.689 23.404C207.629 23.404 204.677 25.708 204.677 29.992C204.677 34.276 207.629 36.76 210.689 36.76C213.785 36.76 216.701 34.348 216.701 30.064Z" fill="#FC8019"></path><rect x="9.77783" y="21" width="23.2222" height="3.66667" rx="1.83333" fill="#FC8019"></rect><rect y="28.3334" width="23.2222" height="3.66667" rx="1.83333" fill="#FC8019"></rect><path d="M9.77783 37.5C9.77783 36.4874 10.5986 35.6666 11.6112 35.6666H31.1667C32.1792 35.6666 33.0001 36.4874 33.0001 37.5C33.0001 38.5125 32.1792 39.3333 31.1667 39.3333H11.6112C10.5986 39.3333 9.77783 38.5125 9.77783 37.5Z" fill="#FC8019"></path></svg>